<svg xmlns="http://www.w3.org/2000/svg" width="80px" height="80px" viewBox="0 0 100 100" xml:space="preserve">
<path d="M50.152 75.622L27.508 81.69c-5.391 1.445-10.932-1.755-12.377-7.146L5.006 36.755c-1.445-5.391 1.755-10.932 7.146-12.377l22.644-6.068c5.391-1.445 10.932 1.755 12.377 7.146l10.125 37.788c1.444 5.392-1.755 10.933-7.146 12.378z" stroke-width="3.5" stroke-linecap="round" stroke-linejoin="round" stroke-miterlimit="10" fill="#0e0e0e" stroke="#333" />
<path d="M72.492 81.689l-22.644-6.068c-5.391-1.445-8.59-6.986-7.146-12.377l10.125-37.788c1.445-5.391 6.986-8.59 12.377-7.146l22.644 6.068c5.391 1.445 8.59 6.986 7.146 12.377L84.869 74.543c-1.445 5.391-6.986 8.591-12.377 7.146z" stroke-width="3.5" stroke-linecap="round" stroke-linejoin="round" stroke-miterlimit="10" fill="#e0e0e0" stroke="#333" />
</svg>
